<?xml version="1.0" encoding="UTF-8"?>
<svg id="Layer_1" xmlns="http://www.w3.org/2000/svg" version="1.1" xmlns:xlink="http://www.w3.org/1999/xlink" viewBox="0 0 1697.77 401.06">
  <!-- Generator: Adobe Illustrator 29.1.0, SVG Export Plug-In . SVG Version: 2.1.0 Build 142)  -->
  <defs>
    <style>
      .st0 {
        fill: url(#linear-gradient2);
      }

      .st1 {
        fill: #378ac9;
      }

      .st2 {
        fill: #44bded;
      }

      .st3 {
        fill: url(#linear-gradient10);
      }

      .st4 {
        fill: #104b86;
      }

      .st5 {
        fill: url(#linear-gradient1);
      }

      .st6 {
        fill: url(#linear-gradient9);
      }

      .st7 {
        fill: #3091cf;
      }

      .st8 {
        fill: url(#linear-gradient8);
      }

      .st9 {
        fill: url(#linear-gradient11);
      }

      .st10 {
        fill: #389dd8;
      }

      .st11 {
        fill: #3eace2;
      }

      .st12 {
        fill: #2586c1;
      }

      .st13 {
        fill: url(#linear-gradient12);
      }

      .st14 {
        fill: #212121;
      }

      .st15 {
        fill: url(#linear-gradient7);
      }

      .st16 {
        fill: url(#linear-gradient4);
      }

      .st17 {
        fill: url(#linear-gradient5);
      }

      .st18 {
        fill: url(#linear-gradient3);
      }

      .st19 {
        fill: #41b3e6;
      }

      .st20 {
        fill: url(#linear-gradient6);
      }

      .st21 {
        fill: #1b2831;
      }

      .st22 {
        fill: url(#linear-gradient13);
      }

      .st23 {
        fill: url(#linear-gradient);
      }

      .st24 {
        fill: #3f464e;
      }
    </style>
    <linearGradient id="linear-gradient" x1="171.81" y1="267.12" x2="161.84" y2="197.36" gradientUnits="userSpaceOnUse">
      <stop offset="0" stop-color="#1d3c6e"/>
      <stop offset="1" stop-color="#1a71b9"/>
    </linearGradient>
    <linearGradient id="linear-gradient1" x1="232.5" y1="242.09" x2="232.98" y2="188.41" xlink:href="#linear-gradient"/>
    <linearGradient id="linear-gradient2" x1="244.99" y1="185.98" x2="210.9" y2="185.26" xlink:href="#linear-gradient"/>
    <linearGradient id="linear-gradient3" x1="492.16" y1="217.91" x2="511.22" y2="217.91" xlink:href="#linear-gradient"/>
    <linearGradient id="linear-gradient4" x1="302.23" y1="197.8" x2="334.96" y2="197.8" xlink:href="#linear-gradient"/>
    <linearGradient id="linear-gradient5" x1="387.99" y1="282.63" x2="575.62" y2="282.63" gradientUnits="userSpaceOnUse">
      <stop offset="0" stop-color="#1a2e46"/>
      <stop offset=".49" stop-color="#0f74bb"/>
      <stop offset="1" stop-color="#2c4469"/>
    </linearGradient>
    <linearGradient id="linear-gradient6" x1="255.56" y1="298.27" x2="269.74" y2="298.27" xlink:href="#linear-gradient"/>
    <linearGradient id="linear-gradient7" x1="271.93" y1="298.27" x2="286.11" y2="298.27" xlink:href="#linear-gradient"/>
    <linearGradient id="linear-gradient8" x1="255.56" y1="313.66" x2="269.74" y2="313.66" xlink:href="#linear-gradient"/>
    <linearGradient id="linear-gradient9" x1="271.93" y1="313.66" x2="286.11" y2="313.66" xlink:href="#linear-gradient"/>
    <linearGradient id="linear-gradient10" x1="486.35" y1="298.27" x2="500.52" y2="298.27" xlink:href="#linear-gradient"/>
    <linearGradient id="linear-gradient11" x1="502.72" y1="298.27" x2="516.9" y2="298.27" xlink:href="#linear-gradient"/>
    <linearGradient id="linear-gradient12" x1="486.35" y1="313.66" x2="500.52" y2="313.66" xlink:href="#linear-gradient"/>
    <linearGradient id="linear-gradient13" x1="502.72" y1="313.66" x2="516.9" y2="313.66" xlink:href="#linear-gradient"/>
  </defs>
  <g>
    <g>
      <path class="st14" d="M629.17,241.38v-80.72h14.09l30.23,41.07h-6.72l29.58-41.07h14.09v80.72h-14.84v-63.93l5.74,1.41-30.66,40.85h-1.73l-29.9-40.85,4.88-1.41v63.93h-14.74Z"/>
      <path class="st14" d="M725.93,241.38v-80.72h14.74v80.72h-14.74Z"/>
      <path class="st14" d="M756.16,241.38v-80.72h14.74v67.72h34.56v13h-49.3Z"/>
      <path class="st14" d="M814.99,241.38v-80.72h53.63v13h-38.9v20.7h36.73v13h-36.73v21.02h38.9v13h-53.63Z"/>
      <path class="st14" d="M898.75,241.38v-80.72h14.74v35.21h34.35v-35.21h14.84v80.72h-14.84v-32.51h-34.35v32.51h-14.74Z"/>
      <path class="st14" d="M978.17,241.38v-80.72h14.74v80.72h-14.74Z"/>
      <path class="st14" d="M1046.64,242.68c-5.78,0-11.12-1.05-16.04-3.14-4.91-2.09-9.21-5.02-12.89-8.78-3.68-3.75-6.55-8.16-8.61-13.22-2.06-5.06-3.09-10.58-3.09-16.58s.99-11.54,2.98-16.63c1.99-5.09,4.8-9.5,8.45-13.22,3.65-3.72,7.93-6.61,12.84-8.67,4.91-2.06,10.26-3.09,16.04-3.09s10.96.98,15.55,2.93c4.59,1.95,8.47,4.53,11.65,7.75,3.18,3.22,5.45,6.74,6.83,10.56l-13.11,6.28c-1.52-4.19-4.08-7.58-7.69-10.19-3.61-2.6-8.02-3.9-13.22-3.9s-9.52,1.19-13.38,3.58c-3.87,2.38-6.86,5.67-8.99,9.86-2.13,4.19-3.2,9.1-3.2,14.74s1.1,10.56,3.31,14.79c2.2,4.23,5.26,7.53,9.16,9.91,3.9,2.38,8.38,3.58,13.44,3.58,4.12,0,7.91-.81,11.38-2.44,3.47-1.63,6.25-3.94,8.34-6.93,2.09-3,3.14-6.56,3.14-10.67v-6.18l6.72,5.85h-29.91v-12.46h37.92v8.13c0,6.21-1.05,11.7-3.14,16.47-2.1,4.77-4.93,8.76-8.51,11.97-3.58,3.21-7.6,5.63-12.08,7.26-4.48,1.63-9.1,2.44-13.87,2.44Z"/>
      <path class="st14" d="M1095.94,241.38v-80.72h14.74v35.21h34.35v-35.21h14.84v80.72h-14.84v-32.51h-34.35v32.51h-14.74Z"/>
      <path class="st14" d="M1232.89,242.68c-5.78,0-11.12-1.05-16.04-3.14-4.91-2.09-9.21-5.02-12.89-8.78-3.68-3.75-6.56-8.16-8.61-13.22-2.06-5.06-3.09-10.58-3.09-16.58s.99-11.54,2.98-16.63c1.99-5.09,4.8-9.5,8.45-13.22,3.65-3.72,7.93-6.61,12.84-8.67,4.91-2.06,10.26-3.09,16.04-3.09s10.96.98,15.55,2.93c4.59,1.95,8.47,4.53,11.65,7.75,3.18,3.22,5.45,6.74,6.83,10.56l-13.11,6.28c-1.52-4.19-4.08-7.58-7.69-10.19-3.61-2.6-8.02-3.9-13.22-3.9s-9.52,1.19-13.38,3.58c-3.86,2.38-6.86,5.67-8.99,9.86-2.13,4.19-3.2,9.1-3.2,14.74s1.1,10.56,3.3,14.79c2.2,4.23,5.26,7.53,9.16,9.91,3.9,2.38,8.38,3.58,13.44,3.58,4.12,0,7.91-.81,11.38-2.44,3.47-1.63,6.25-3.94,8.34-6.93,2.09-3,3.14-6.56,3.14-10.67v-6.18l6.72,5.85h-29.9v-12.46h37.92v8.13c0,6.21-1.05,11.7-3.14,16.47-2.1,4.77-4.93,8.76-8.51,11.97-3.58,3.21-7.6,5.63-12.08,7.26-4.48,1.63-9.1,2.44-13.87,2.44Z"/>
      <path class="st14" d="M1313.29,242.68c-6.21,0-11.72-1.3-16.52-3.9-4.81-2.6-8.58-6.18-11.32-10.73-2.75-4.55-4.12-9.71-4.12-15.49v-51.9h14.74v51.14c0,3.32.74,6.32,2.22,8.99,1.48,2.67,3.52,4.75,6.12,6.23,2.6,1.48,5.56,2.22,8.88,2.22s6.37-.74,8.94-2.22c2.56-1.48,4.59-3.56,6.07-6.23,1.48-2.67,2.22-5.67,2.22-8.99v-51.14h14.74v51.9c0,5.78-1.37,10.94-4.12,15.49-2.75,4.55-6.52,8.13-11.32,10.73-4.81,2.6-10.31,3.9-16.52,3.9Z"/>
      <path class="st14" d="M1374.29,241.38v-67.72h-20.91v-13h56.34v13h-20.59v67.72h-14.84Z"/>
      <path class="st14" d="M1433.02,241.38v-67.72h-20.91v-13h56.34v13h-20.59v67.72h-14.84Z"/>
      <path class="st14" d="M1477.44,241.38v-80.72h53.63v13h-38.9v20.7h36.73v13h-36.73v21.02h38.9v13h-53.63Z"/>
      <path class="st14" d="M1541.91,241.38v-80.72h30.01c5.49,0,10.35.99,14.57,2.98,4.23,1.99,7.53,4.88,9.91,8.67,2.38,3.79,3.58,8.4,3.58,13.82s-1.32,10.29-3.95,14.19c-2.64,3.9-6.19,6.79-10.67,8.67l18.53,32.4h-16.69l-19.83-35.43,9.53,5.63h-20.26v29.8h-14.74ZM1556.64,198.58h15.49c2.67,0,4.98-.52,6.93-1.57,1.95-1.05,3.47-2.51,4.55-4.39,1.08-1.88,1.63-4.04,1.63-6.5s-.54-4.71-1.63-6.56c-1.08-1.84-2.6-3.29-4.55-4.33-1.95-1.05-4.26-1.57-6.93-1.57h-15.49v24.92Z"/>
    </g>
    <g>
      <path class="st2" d="M1008.79,303.3v-31.23h10.19c3.3,0,6.17.66,8.62,1.99,2.45,1.33,4.34,3.16,5.68,5.49,1.34,2.33,2.01,5.04,2.01,8.11s-.67,5.75-2.01,8.11c-1.34,2.36-3.24,4.21-5.68,5.53-2.45,1.33-5.32,1.99-8.62,1.99h-10.19ZM1014.49,298.27h4.61c2.12,0,3.96-.44,5.51-1.32,1.55-.88,2.76-2.11,3.63-3.69s1.3-3.44,1.3-5.6-.43-4.05-1.3-5.62-2.07-2.78-3.63-3.65c-1.55-.87-3.39-1.3-5.51-1.3h-4.61v21.17Z"/>
      <path class="st2" d="M1049.88,303.3v-31.23h20.75v5.03h-15.05v8.01h14.21v5.03h-14.21v8.13h15.05v5.03h-20.75Z"/>
      <path class="st2" d="M1084.88,303.3v-31.23h4.44l17.19,23.14-2.31.46v-23.6h5.7v31.23h-4.49l-16.94-23.31,2.1-.46v23.77h-5.7Z"/>
      <path class="st2" d="M1134.34,303.3l-10.9-31.23h6.2l8.55,25.86h-1.22l8.55-25.86h6.2l-10.86,31.23h-6.54Z"/>
      <path class="st2" d="M1165.28,303.3v-31.23h20.75v5.03h-15.05v8.01h14.21v5.03h-14.21v8.13h15.05v5.03h-20.75Z"/>
      <path class="st2" d="M1200.28,303.3v-31.23h11.61c2.12,0,4,.39,5.64,1.15,1.63.77,2.91,1.89,3.84,3.35.92,1.47,1.38,3.25,1.38,5.35s-.51,3.98-1.53,5.49c-1.02,1.51-2.4,2.63-4.13,3.35l7.17,12.53h-6.46l-7.67-13.71,3.69,2.18h-7.84v11.53h-5.7ZM1205.99,286.74h5.99c1.03,0,1.93-.2,2.68-.61.75-.4,1.34-.97,1.76-1.7.42-.73.63-1.56.63-2.51s-.21-1.82-.63-2.54c-.42-.71-1.01-1.27-1.76-1.68-.75-.4-1.65-.61-2.68-.61h-5.99v9.64Z"/>
    </g>
  </g>
  <g>
    <g>
      <polygon class="st23" points="182.81 181.99 182.81 259.13 149.58 273.7 149.58 196.66 182.81 181.99"/>
      <polygon class="st10" points="208.65 188.53 208.65 247.81 182.81 259.13 182.81 181.99 208.65 188.53"/>
      <polygon class="st5" points="246.03 131.18 246.03 231.42 220.13 242.78 220.13 122.86 246.03 131.18"/>
      <polygon class="st0" points="220.13 122.86 220.13 242.78 208.65 247.81 208.65 130.25 220.13 122.86"/>
      <polygon class="st4" points="270.71 61.05 270.71 222.37 269.52 221.67 268.99 221.36 246.03 231.42 246.03 94.27 270.71 61.05"/>
      <polygon class="st1" points="302.23 73.87 302.23 240.73 270.71 222.37 269.52 221.67 270.71 61.05 302.23 73.87"/>
      <path class="st1" d="M320.56,265.31"/>
      <polygon class="st11" points="356.29 154.14 356.29 237.05 334.96 246.19 327.05 249.59 334.96 143.63 356.29 154.14"/>
      <polygon class="st7" points="393.67 118.89 393.67 246.22 382.32 248.04 356.79 236.85 356.29 237.05 356.29 125.31 393.67 118.89"/>
      <polygon class="st19" points="413.73 171.45 413.73 243.01 393.67 246.22 393.67 168.55 413.73 171.45"/>
      <polygon class="st12" points="435.73 175.4 435.73 239.49 413.73 243.01 413.73 181.02 435.73 175.4"/>
      <polygon class="st2" points="458.94 180.77 458.94 235.77 435.73 239.49 435.73 175.4 458.94 180.77"/>
      <polygon class="st1" points="492.9 230.33 492.16 230.46 458.94 235.77 458.94 147.3 487.03 149.98 492.9 156.34 492.9 230.33"/>
      <polygon class="st18" points="511.22 203.64 511.22 232.18 504.99 228.4 492.9 230.33 492.16 230.46 492.16 208.9 492.9 208.7 511.22 203.64"/>
      <polygon class="st10" points="541.63 210.92 541.63 250.67 511.22 232.18 511.22 203.64 541.63 210.92"/>
      <polygon class="st16" points="334.96 143.63 334.96 246.19 327.05 249.59 321.5 251.96 302.23 240.73 302.23 143.63 334.96 143.63"/>
    </g>
    <g>
      <polygon class="st24" points="54.35 325.63 268.39 231.81 433.2 328.99 402.84 329.05 271.08 252.09 54.35 325.63"/>
      <polygon class="st17" points="649.43 327.1 620.6 327.1 502.2 247.25 501.85 247.01 400.46 304.37 387.3 296.44 364.37 282.63 326.67 259.9 356.75 247.01 399.48 265.77 391.66 256 503.08 238.16 649.43 327.1"/>
      <polygon class="st21" points="608.81 327.1 589.57 327.1 500.14 268.58 415.83 309.15 412.92 310.55 501.62 258.68 608.81 327.1"/>
      <g>
        <rect class="st20" x="255.56" y="291.79" width="14.17" height="12.95"/>
        <rect class="st15" x="271.93" y="291.79" width="14.17" height="12.95"/>
        <rect class="st8" x="255.56" y="307.18" width="14.17" height="12.95"/>
        <rect class="st6" x="271.93" y="307.18" width="14.17" height="12.95"/>
      </g>
      <g>
        <rect class="st3" x="486.35" y="291.79" width="14.17" height="12.95"/>
        <rect class="st9" x="502.72" y="291.79" width="14.17" height="12.95"/>
        <rect class="st13" x="486.35" y="307.18" width="14.17" height="12.95"/>
        <rect class="st22" x="502.72" y="307.18" width="14.17" height="12.95"/>
      </g>
    </g>
  </g>
</svg>