<?xml version="1.0" encoding="UTF-8"?>
<svg id="Layer_1" xmlns="http://www.w3.org/2000/svg" version="1.1" xmlns:xlink="http://www.w3.org/1999/xlink" viewBox="0 0 1424.98 1000">
  <!-- Generator: Adobe Illustrator 29.1.0, SVG Export Plug-In . SVG Version: 2.1.0 Build 142)  -->
  <defs>
    <style>
      .st0 {
        fill: url(#linear-gradient2);
      }

      .st1 {
        fill: #378ac9;
      }

      .st2 {
        fill: #44bded;
      }

      .st3 {
        fill: url(#linear-gradient10);
      }

      .st4 {
        fill: #104b86;
      }

      .st5 {
        fill: url(#linear-gradient1);
      }

      .st6 {
        fill: url(#linear-gradient9);
      }

      .st7 {
        fill: #3091cf;
      }

      .st8 {
        fill: url(#linear-gradient8);
      }

      .st9 {
        fill: url(#linear-gradient11);
      }

      .st10 {
        fill: #389dd8;
      }

      .st11 {
        fill: #3eace2;
      }

      .st12 {
        fill: #2586c1;
      }

      .st13 {
        fill: url(#linear-gradient12);
      }

      .st14 {
        fill: #212121;
      }

      .st15 {
        fill: url(#linear-gradient7);
      }

      .st16 {
        fill: url(#linear-gradient4);
      }

      .st17 {
        fill: url(#linear-gradient5);
      }

      .st18 {
        fill: url(#linear-gradient3);
      }

      .st19 {
        fill: #41b3e6;
      }

      .st20 {
        fill: url(#linear-gradient6);
      }

      .st21 {
        fill: #1b2831;
      }

      .st22 {
        fill: url(#linear-gradient13);
      }

      .st23 {
        fill: url(#linear-gradient);
      }

      .st24 {
        fill: #3f464e;
      }
    </style>
    <linearGradient id="linear-gradient" x1="316.6" y1="541.64" x2="295.28" y2="392.42" gradientUnits="userSpaceOnUse">
      <stop offset="0" stop-color="#1d3c6e"/>
      <stop offset="1" stop-color="#1a71b9"/>
    </linearGradient>
    <linearGradient id="linear-gradient1" x1="446.42" y1="488.08" x2="447.45" y2="373.27" xlink:href="#linear-gradient"/>
    <linearGradient id="linear-gradient2" x1="473.13" y1="368.06" x2="400.21" y2="366.53" xlink:href="#linear-gradient"/>
    <linearGradient id="linear-gradient3" x1="1001.83" y1="436.38" x2="1042.6" y2="436.38" xlink:href="#linear-gradient"/>
    <linearGradient id="linear-gradient4" x1="595.59" y1="393.34" x2="665.59" y2="393.34" xlink:href="#linear-gradient"/>
    <linearGradient id="linear-gradient5" x1="779.02" y1="574.8" x2="1180.36" y2="574.8" gradientUnits="userSpaceOnUse">
      <stop offset="0" stop-color="#1a2e46"/>
      <stop offset=".49" stop-color="#0f74bb"/>
      <stop offset="1" stop-color="#2c4469"/>
    </linearGradient>
    <linearGradient id="linear-gradient6" x1="495.75" y1="608.25" x2="526.07" y2="608.25" xlink:href="#linear-gradient"/>
    <linearGradient id="linear-gradient7" x1="530.77" y1="608.25" x2="561.08" y2="608.25" xlink:href="#linear-gradient"/>
    <linearGradient id="linear-gradient8" x1="495.75" y1="641.18" x2="526.07" y2="641.18" xlink:href="#linear-gradient"/>
    <linearGradient id="linear-gradient9" x1="530.77" y1="641.18" x2="561.08" y2="641.18" xlink:href="#linear-gradient"/>
    <linearGradient id="linear-gradient10" x1="989.42" y1="608.25" x2="1019.73" y2="608.25" xlink:href="#linear-gradient"/>
    <linearGradient id="linear-gradient11" x1="1024.43" y1="608.25" x2="1054.75" y2="608.25" xlink:href="#linear-gradient"/>
    <linearGradient id="linear-gradient12" x1="989.42" y1="641.18" x2="1019.73" y2="641.18" xlink:href="#linear-gradient"/>
    <linearGradient id="linear-gradient13" x1="1024.43" y1="641.18" x2="1054.75" y2="641.18" xlink:href="#linear-gradient"/>
  </defs>
  <g>
    <g>
      <polygon class="st23" points="340.14 359.54 340.14 524.54 269.05 555.71 269.05 390.91 340.14 359.54"/>
      <polygon class="st10" points="395.41 373.52 395.41 500.32 340.14 524.54 340.14 359.54 395.41 373.52"/>
      <polygon class="st5" points="475.36 250.84 475.36 465.27 419.97 489.56 419.97 233.06 475.36 250.84"/>
      <polygon class="st0" points="419.97 233.06 419.97 489.56 395.41 500.32 395.41 248.86 419.97 233.06"/>
      <polygon class="st4" points="528.15 100.83 528.15 445.9 525.6 444.42 524.46 443.75 475.36 465.27 475.36 171.9 528.15 100.83"/>
      <polygon class="st1" points="595.59 128.27 595.59 485.18 528.15 445.9 525.6 444.42 528.15 100.83 595.59 128.27"/>
      <path class="st1" d="M634.78,537.76"/>
      <polygon class="st11" points="711.21 299.97 711.21 477.32 665.59 496.86 648.67 504.13 665.59 277.48 711.21 299.97"/>
      <polygon class="st7" points="791.16 224.57 791.16 496.93 766.89 500.82 712.27 476.87 711.21 477.32 711.21 238.3 791.16 224.57"/>
      <polygon class="st19" points="834.08 336.98 834.08 490.06 791.16 496.93 791.16 330.79 834.08 336.98"/>
      <polygon class="st12" points="881.13 345.44 881.13 482.54 834.08 490.06 834.08 357.46 881.13 345.44"/>
      <polygon class="st2" points="930.78 356.92 930.78 474.57 881.13 482.54 881.13 345.44 930.78 356.92"/>
      <polygon class="st1" points="1003.41 462.94 1001.83 463.22 930.78 474.57 930.78 285.33 990.87 291.07 1003.41 304.67 1003.41 462.94"/>
      <polygon class="st18" points="1042.6 405.85 1042.6 466.9 1029.29 458.81 1003.41 462.94 1001.83 463.22 1001.83 417.11 1003.41 416.66 1042.6 405.85"/>
      <polygon class="st10" points="1107.66 421.41 1107.66 506.43 1042.6 466.9 1042.6 405.85 1107.66 421.41"/>
      <polygon class="st16" points="665.59 277.48 665.59 496.86 648.67 504.13 636.8 509.2 595.59 485.18 595.59 277.48 665.59 277.48"/>
    </g>
    <g>
      <polygon class="st24" points="65.36 666.79 523.19 466.09 875.72 673.98 810.77 674.1 528.94 509.47 65.36 666.79"/>
      <polygon class="st17" points="1338.25 669.92 1276.58 669.92 1023.31 499.13 1022.57 498.62 805.68 621.32 777.54 604.35 728.49 574.8 647.84 526.19 712.19 498.62 803.6 538.74 786.86 517.84 1025.19 479.68 1338.25 669.92"/>
      <polygon class="st21" points="1251.35 669.92 1210.21 669.92 1018.92 544.75 838.57 631.53 832.34 634.52 1022.08 523.58 1251.35 669.92"/>
      <g>
        <rect class="st20" x="495.75" y="594.4" width="30.31" height="27.7"/>
        <rect class="st15" x="530.77" y="594.4" width="30.31" height="27.7"/>
        <rect class="st8" x="495.75" y="627.33" width="30.31" height="27.7"/>
        <rect class="st6" x="530.77" y="627.33" width="30.31" height="27.7"/>
      </g>
      <g>
        <rect class="st3" x="989.42" y="594.4" width="30.31" height="27.7"/>
        <rect class="st9" x="1024.43" y="594.4" width="30.31" height="27.7"/>
        <rect class="st13" x="989.42" y="627.33" width="30.31" height="27.7"/>
        <rect class="st22" x="1024.43" y="627.33" width="30.31" height="27.7"/>
      </g>
    </g>
  </g>
  <g>
    <path class="st14" d="M107.25,819.6v-103.72h18.1l38.84,52.76h-8.63l38.01-52.76h18.1v103.72h-19.07v-82.14l7.38,1.81-39.4,52.48h-2.23l-38.42-52.48,6.26-1.81v82.14h-18.93Z"/>
    <path class="st14" d="M231.57,819.6v-103.72h18.93v103.72h-18.93Z"/>
    <path class="st14" d="M270.41,819.6v-103.72h18.93v87.01h44.41v16.71h-63.34Z"/>
    <path class="st14" d="M346,819.6v-103.72h68.91v16.71h-49.98v26.59h47.19v16.7h-47.19v27.01h49.98v16.71h-68.91Z"/>
    <path class="st14" d="M453.61,819.6v-103.72h18.93v45.25h44.13v-45.25h19.07v103.72h-19.07v-41.77h-44.13v41.77h-18.93Z"/>
    <path class="st14" d="M555.66,819.6v-103.72h18.93v103.72h-18.93Z"/>
    <path class="st14" d="M643.64,821.27c-7.43,0-14.29-1.35-20.6-4.04-6.31-2.69-11.83-6.45-16.57-11.28-4.73-4.82-8.42-10.49-11.07-16.98-2.64-6.5-3.97-13.6-3.97-21.3s1.27-14.83,3.83-21.37c2.55-6.54,6.17-12.2,10.86-16.98,4.69-4.78,10.18-8.49,16.5-11.14,6.31-2.65,13.18-3.97,20.6-3.97s14.08,1.25,19.98,3.76c5.89,2.51,10.88,5.83,14.97,9.95,4.08,4.13,7.01,8.66,8.77,13.57l-16.85,8.08c-1.95-5.38-5.24-9.75-9.88-13.09-4.64-3.34-10.3-5.01-16.98-5.01s-12.23,1.53-17.19,4.59c-4.97,3.06-8.82,7.29-11.55,12.67-2.74,5.38-4.11,11.69-4.11,18.93s1.41,13.57,4.25,19c2.83,5.43,6.75,9.67,11.76,12.74,5.01,3.06,10.77,4.59,17.26,4.59,5.29,0,10.16-1.04,14.62-3.13,4.46-2.09,8.03-5.06,10.72-8.91,2.69-3.85,4.04-8.42,4.04-13.71v-7.94l8.63,7.52h-38.42v-16.01h48.73v10.44c0,7.98-1.35,15.03-4.04,21.16-2.69,6.13-6.33,11.26-10.93,15.38-4.59,4.13-9.77,7.24-15.52,9.33-5.76,2.09-11.69,3.13-17.82,3.13Z"/>
    <path class="st14" d="M706.98,819.6v-103.72h18.93v45.25h44.13v-45.25h19.07v103.72h-19.07v-41.77h-44.13v41.77h-18.93Z"/>
    <path class="st14" d="M882.95,821.27c-7.43,0-14.29-1.35-20.6-4.04-6.31-2.69-11.83-6.45-16.57-11.28-4.73-4.82-8.42-10.49-11.07-16.98-2.64-6.5-3.97-13.6-3.97-21.3s1.27-14.83,3.83-21.37c2.55-6.54,6.17-12.2,10.86-16.98,4.69-4.78,10.18-8.49,16.5-11.14,6.31-2.65,13.18-3.97,20.6-3.97s14.08,1.25,19.98,3.76c5.89,2.51,10.88,5.83,14.97,9.95,4.08,4.13,7.01,8.66,8.77,13.57l-16.85,8.08c-1.95-5.38-5.24-9.75-9.88-13.09-4.64-3.34-10.3-5.01-16.99-5.01s-12.23,1.53-17.19,4.59c-4.97,3.06-8.82,7.29-11.55,12.67-2.74,5.38-4.11,11.69-4.11,18.93s1.41,13.57,4.25,19c2.83,5.43,6.75,9.67,11.76,12.74,5.01,3.06,10.76,4.59,17.26,4.59,5.29,0,10.16-1.04,14.62-3.13,4.45-2.09,8.03-5.06,10.72-8.91,2.69-3.85,4.04-8.42,4.04-13.71v-7.94l8.63,7.52h-38.42v-16.01h48.73v10.44c0,7.98-1.35,15.03-4.04,21.16-2.69,6.13-6.33,11.26-10.93,15.38-4.6,4.13-9.77,7.24-15.52,9.33-5.76,2.09-11.69,3.13-17.82,3.13Z"/>
    <path class="st14" d="M986.25,821.27c-7.98,0-15.06-1.67-21.23-5.01-6.17-3.34-11.02-7.93-14.55-13.78-3.53-5.85-5.29-12.48-5.29-19.91v-66.68h18.93v65.71c0,4.27.95,8.12,2.85,11.55,1.9,3.43,4.52,6.11,7.87,8.01,3.34,1.9,7.15,2.85,11.42,2.85s8.19-.95,11.49-2.85c3.29-1.9,5.89-4.57,7.8-8.01,1.9-3.43,2.85-7.28,2.85-11.55v-65.71h18.93v66.68c0,7.43-1.76,14.06-5.29,19.91-3.53,5.85-8.38,10.44-14.55,13.78-6.17,3.34-13.25,5.01-21.23,5.01Z"/>
    <path class="st14" d="M1064.62,819.6v-87.01h-26.87v-16.71h72.39v16.71h-26.45v87.01h-19.07Z"/>
    <path class="st14" d="M1140.08,819.6v-87.01h-26.87v-16.71h72.39v16.71h-26.45v87.01h-19.07Z"/>
    <path class="st14" d="M1197.15,819.6v-103.72h68.91v16.71h-49.98v26.59h47.19v16.7h-47.19v27.01h49.98v16.71h-68.91Z"/>
    <path class="st14" d="M1279.99,819.6v-103.72h38.56c7.05,0,13.29,1.28,18.72,3.83,5.43,2.55,9.67,6.26,12.74,11.14,3.06,4.87,4.59,10.79,4.59,17.75s-1.69,13.23-5.08,18.24c-3.39,5.01-7.96,8.72-13.71,11.14l23.81,41.63h-21.44l-25.48-45.52,12.25,7.24h-26.03v38.28h-18.93ZM1298.92,764.61h19.91c3.43,0,6.4-.67,8.91-2.02,2.51-1.34,4.46-3.22,5.85-5.64,1.39-2.41,2.09-5.2,2.09-8.35s-.7-6.06-2.09-8.42c-1.39-2.37-3.34-4.22-5.85-5.57-2.51-1.34-5.48-2.02-8.91-2.02h-19.91v32.02Z"/>
  </g>
  <g>
    <path class="st2" d="M595.01,899.17v-40.13h13.09c4.24,0,7.93.85,11.07,2.56,3.14,1.71,5.57,4.06,7.3,7.06,1.72,3,2.59,6.47,2.59,10.42s-.86,7.39-2.59,10.42c-1.72,3.04-4.16,5.4-7.3,7.11-3.14,1.7-6.83,2.56-11.07,2.56h-13.09ZM602.33,892.7h5.93c2.73,0,5.09-.57,7.08-1.7,1.99-1.13,3.55-2.71,4.66-4.74s1.67-4.43,1.67-7.19-.56-5.21-1.67-7.22c-1.11-2.01-2.67-3.57-4.66-4.69-1.99-1.11-4.35-1.67-7.08-1.67h-5.93v27.2Z"/>
    <path class="st2" d="M647.79,899.17v-40.13h26.66v6.46h-19.34v10.29h18.26v6.46h-18.26v10.45h19.34v6.46h-26.66Z"/>
    <path class="st2" d="M692.77,899.17v-40.13h5.71l22.08,29.73-2.96.59v-30.33h7.33v40.13h-5.76l-21.76-29.95,2.69-.59v30.54h-7.33Z"/>
    <path class="st2" d="M756.33,899.17l-14-40.13h7.97l10.99,33.23h-1.56l10.99-33.23h7.97l-13.95,40.13h-8.4Z"/>
    <path class="st2" d="M796.07,899.17v-40.13h26.66v6.46h-19.34v10.29h18.26v6.46h-18.26v10.45h19.34v6.46h-26.66Z"/>
    <path class="st2" d="M841.05,899.17v-40.13h14.92c2.73,0,5.14.49,7.24,1.48,2.1.99,3.74,2.42,4.93,4.31,1.18,1.89,1.78,4.18,1.78,6.87s-.66,5.12-1.97,7.06c-1.31,1.94-3.08,3.38-5.31,4.31l9.21,16.11h-8.29l-9.86-17.61,4.74,2.8h-10.07v14.81h-7.33ZM848.37,877.89h7.7c1.33,0,2.48-.26,3.45-.78.97-.52,1.72-1.25,2.26-2.18.54-.93.81-2.01.81-3.23s-.27-2.34-.81-3.26c-.54-.91-1.29-1.63-2.26-2.15-.97-.52-2.12-.78-3.45-.78h-7.7v12.39Z"/>
  </g>
</svg>